<?xml version="1.0" encoding="utf-8"?>
<!-- Generator: Adobe Illustrator 19.2.1, SVG Export Plug-In . SVG Version: 6.00 Build 0)  -->
<svg version="1.1" id="Capa_1" xmlns="http://www.w3.org/2000/svg" xmlns:xlink="http://www.w3.org/1999/xlink" x="0px" y="0px"
	 viewBox="0 0 645.3 165.8" style="enable-background:new 0 0 645.3 165.8;" xml:space="preserve">
<style type="text/css">
	.st0{fill:#FFFFFF;}
	.st1{fill:#E91D62;}
	.st2{fill:none;stroke:#FFFFFF;stroke-width:5;stroke-miterlimit:10;}
</style>
<g>
	<path class="st0" d="M268,41.1l-6.3,12.1c-1.8-1.6-4.5-3.2-8.2-4.7c-3.7-1.6-6.9-2.3-9.6-2.3c-8.3,0-14.9,2.8-19.8,8.5
		c-4.8,5.7-7.2,13.2-7.2,22.8c0,9,2.4,16.3,7.1,21.7c4.7,5.4,11.2,8.1,19.3,8.1c5.4,0,9.8-1.5,13.3-4.4V86.1h-11.8V73.2h26.8v38
		c-3.6,2.9-8.2,5.2-13.9,6.9c-5.7,1.6-11.3,2.5-16.9,2.5c-12.2,0-21.8-4-29-12S201.2,90.1,201.2,77c0-13.1,3.9-23.7,11.7-31.9
		c7.8-8.2,18.2-12.3,31.4-12.3C253.5,32.7,261.4,35.5,268,41.1z"/>
	<path class="st0" d="M324.1,119.2V114c-2,1.7-4.9,3.2-8.5,4.5s-6.9,1.9-9.9,1.9c-14.4,0-21.6-7.7-21.6-23V57h14.5v39.2
		c0,8,3.6,11.9,10.7,11.9c3.3,0,6.3-0.9,9.2-2.6c2.8-1.7,4.7-3.7,5.6-5.9V57h14.5v62.1H324.1z"/>
	<path class="st0" d="M358.1,119.1V68.9h-7.9V57h22.6v62.1H358.1z M365.6,33c2.3,0,4.3,0.8,5.9,2.5c1.6,1.6,2.5,3.6,2.5,5.9
		c0,2.3-0.8,4.3-2.5,5.9c-1.6,1.6-3.6,2.5-5.9,2.5c-2.3,0-4.3-0.8-5.9-2.5c-1.6-1.6-2.5-3.6-2.5-5.9c0-2.3,0.8-4.3,2.5-5.9
		C361.3,33.8,363.3,33,365.6,33z"/>
	<path class="st0" d="M429.6,119.1v-3.8c-1.2,1.3-3.2,2.5-6.1,3.4c-2.9,1-5.8,1.5-8.9,1.5c-8.7,0-15.5-2.7-20.4-8.2
		c-5-5.5-7.4-13.1-7.4-23s2.8-17.8,8.6-24c5.7-6.2,12.8-9.2,21.4-9.2c4.7,0,9,1,12.9,2.9V33.9l14.5-3.5v88.7H429.6z M429.6,71.9
		c-3.1-2.5-6.3-3.7-9.7-3.7c-5.8,0-10.3,1.8-13.4,5.3c-3.1,3.5-4.7,8.6-4.7,15.2c0,12.9,6.2,19.4,18.7,19.4c1.4,0,3.1-0.4,5.1-1.2
		c2-0.8,3.4-1.7,4-2.5V71.9z"/>
	<path class="st0" d="M514,92.5h-44.3c0.3,4.9,2,8.8,5.1,11.5c3.1,2.7,7.3,4.1,12.6,4.1c6.6,0,11.6-1.7,15.1-5.2l5.6,11.1
		c-5.1,4.1-12.7,6.2-22.8,6.2c-9.5,0-17-2.8-22.5-8.3c-5.5-5.5-8.3-13.3-8.3-23.2c0-9.8,3-17.7,9.1-23.8c6-6.1,13.3-9.1,21.8-9.1
		c9,0,16.2,2.7,21.7,8.1c5.4,5.4,8.2,12.2,8.2,20.5C515.2,86.2,514.8,88.9,514,92.5z M470.2,81.6h30.5c-1-9.1-6-13.6-15.1-13.6
		C477.3,68,472.2,72.5,470.2,81.6z"/>
	<path class="st1" d="M529.1,111.5c0-2.9,1-5.4,3-7.4s4.5-3,7.4-3c2.9,0,5.4,1,7.4,3s3,4.5,3,7.4s-1,5.4-3,7.4c-2,2-4.5,3.1-7.4,3.1
		c-2.9,0-5.4-1-7.4-3.1C530.1,116.9,529.1,114.4,529.1,111.5z"/>
	<path class="st1" d="M564.7,129.7l6.1-7.5c3.4,3.1,7.1,4.6,11.3,4.6c2.8,0,5.1-0.4,6.9-1.2s2.7-2,2.7-3.4c0-2.4-2-3.7-6-3.7
		c-1.1,0-2.7,0.1-4.8,0.4c-2.1,0.3-3.7,0.4-4.8,0.4c-6.6,0-10-2.4-10-7.1c0-1.4,0.6-2.7,1.7-4c1.1-1.3,2.4-2.3,3.9-2.9
		c-4.7-3.1-7.1-7.4-7.1-13c0-4.4,1.6-8.1,4.9-11s7.2-4.3,12-4.3c3.7,0,6.8,0.7,9.3,2.1l3.8-4.4l6.7,6.1l-4.6,3.4
		c1.6,2.4,2.4,5.3,2.4,8.6c0,4.7-1.4,8.5-4.3,11.3c-2.9,2.8-6.5,4.2-10.9,4.2c-0.7,0-1.6-0.1-2.8-0.2l-1.6-0.2
		c-0.2,0-0.9,0.3-2.1,0.8c-1.2,0.6-1.8,1.1-1.8,1.7c0,1,0.9,1.5,2.7,1.5c0.8,0,2.1-0.2,4-0.6c1.9-0.4,3.5-0.6,4.8-0.6
		c9.4,0,14.1,3.8,14.1,11.3c0,4.2-1.9,7.5-5.6,9.8c-3.8,2.4-8.3,3.6-13.6,3.6C575.6,135.3,569.8,133.5,564.7,129.7z M574.4,92.3
		c0,2.4,0.7,4.4,2,5.9s3.2,2.2,5.5,2.2c2.3,0,4.1-0.7,5.3-2.2c1.2-1.4,1.9-3.4,1.9-6c0-2.1-0.7-3.9-2-5.3s-3-2.2-5.2-2.2
		c-2.2,0-4,0.7-5.4,2.1C575.1,88.3,574.4,90.1,574.4,92.3z"/>
	<path class="st1" d="M644.5,101.4h-29.6c0.2,3.3,1.3,5.9,3.4,7.7s4.9,2.7,8.4,2.7c4.4,0,7.8-1.1,10-3.4l3.7,7.4
		c-3.4,2.8-8.5,4.1-15.2,4.1c-6.3,0-11.3-1.8-15-5.5c-3.7-3.7-5.5-8.9-5.5-15.5c0-6.5,2-11.8,6-15.8c4-4,8.9-6.1,14.5-6.1
		c6,0,10.8,1.8,14.5,5.4c3.6,3.6,5.4,8.1,5.4,13.7C645.3,97.2,645,99,644.5,101.4z M615.2,94.1h20.3c-0.7-6.1-4-9.1-10-9.1
		C620,85,616.6,88.1,615.2,94.1z"/>
</g>
<path class="st1" d="M150.7,165.8H15c-8.3,0-15-6.7-15-15V15C0,6.7,6.7,0,15,0h135.7c8.3,0,15,6.7,15,15v135.7
	C165.8,159,159,165.8,150.7,165.8z"/>
<path class="st2" d="M139.7,154.7H26.1c-8.3,0-15-6.7-15-15V26.1c0-8.3,6.7-15,15-15h113.5c8.3,0,15,6.7,15,15v113.5
	C154.7,148,148,154.7,139.7,154.7z"/>
<g>
	<path class="st0" d="M78.3,133.1V74.6H69V60.7h26.4v72.4H78.3z M87,32.6c2.7,0,5,1,6.9,2.9c1.9,1.9,2.9,4.2,2.9,6.9
		c0,2.7-1,5-2.9,6.9c-1.9,1.9-4.2,2.9-6.9,2.9c-2.7,0-5-1-6.9-2.9c-1.9-1.9-2.9-4.2-2.9-6.9c0-2.7,1-5,2.9-6.9
		C82,33.6,84.3,32.6,87,32.6z"/>
</g>
</svg>
