<?xml version="1.0" encoding="utf-8"?>
<!-- Generator: Adobe Illustrator 25.2.1, SVG Export Plug-In . SVG Version: 6.00 Build 0)  -->
<svg version="1.1"
	 id="svg4162" inkscape:version="0.92.3 (2405546, 2018-03-11)" xmlns:cc="http://creativecommons.org/ns#" xmlns:dc="http://purl.org/dc/elements/1.1/" xmlns:inkscape="http://www.inkscape.org/namespaces/inkscape" xmlns:rdf="http://www.w3.org/1999/02/22-rdf-syntax-ns#" xmlns:sodipodi="http://sodipodi.sourceforge.net/DTD/sodipodi-0.dtd" xmlns:svg="http://www.w3.org/2000/svg"
	 xmlns="http://www.w3.org/2000/svg" xmlns:xlink="http://www.w3.org/1999/xlink" x="0px" y="0px" viewBox="0 0 500 500"
	 style="enable-background:new 0 0 500 500;" xml:space="preserve">
<style type="text/css">
	.st0{fill:#9E9E9E;}
</style>
<sodipodi:namedview  bordercolor="#666666" borderopacity="1.0" id="base" inkscape:current-layer="layer1" inkscape:cx="250" inkscape:cy="250" inkscape:document-units="px" inkscape:pageopacity="0.0" inkscape:pageshadow="2" inkscape:window-height="706" inkscape:window-maximized="1" inkscape:window-width="1366" inkscape:window-x="-8" inkscape:window-y="-8" inkscape:zoom="0.954" pagecolor="#ffffff" showgrid="false" units="px">
	</sodipodi:namedview>
<g id="layer1" transform="translate(0,-552.36216)" inkscape:groupmode="layer" inkscape:label="Layer 1">
	<g id="g1400" transform="translate(-4.3609793,-7.6704785)">
		<path id="path4714" inkscape:connector-curvature="0" class="st0" d="M232.8,615c-85.1,0-154,69-154,154c0,85.1,69,154,154,154
			c85.1,0,154-69,154-154C386.9,683.9,317.9,615,232.8,615z M232.8,641.7c71.8,0,130,57,130,127.3c0,0,0,0,0,0
			c0,70.3-58.2,127.3-130,127.3c0,0,0,0,0,0c-71.8,0-130-57-130-127.3C102.9,698.7,161.1,641.7,232.8,641.7z"/>
		<path id="rect4721" class="st0" d="M347,881l69.6,80.7c12,13.9,16.8,31.6,10.7,39.5l0,0c-6.1,7.9-20.7,3.1-32.7-10.8L325,909.8
			c-12-13.9-16.8-31.6-10.7-39.5l0,0C320.3,862.3,335,867.1,347,881z"/>
	</g>
</g>
</svg>
